HIERARCHY
ROOT Character1_Hips
{
	OFFSET 0.000000 0.000000 0.000000 
	CHANNELS 6 Xposition Yposition Zposition Zrotation Yrotation Xrotation
	JOINT Character1_Spine
	{
		OFFSET 0.000000 20.688101 -0.731520 
		CHANNELS 3 Zrotation Xrotation Yrotation
		JOINT Character1_Spine1
		{
			OFFSET 0.000000 11.704300 -0.487680 
			CHANNELS 3 Zrotation Xrotation Yrotation
			JOINT Character1_Neck
			{
				OFFSET 0.000000 22.189400 -2.194560 
				CHANNELS 3 Zrotation Xrotation Yrotation
				JOINT Character1_Head
				{
					OFFSET -0.243840 7.071330 1.219200 
					CHANNELS 3 Zrotation Xrotation Yrotation
					End Site
					{
						OFFSET 1.000000 0.000000 0.000000 
					}
				}
			}
			JOINT Character1_RightShoulder
			{
				OFFSET -2.682240 19.263399 -4.876800 
				CHANNELS 3 Zrotation Xrotation Yrotation
				JOINT Character1_RightArm
				{
					OFFSET -8.778240 -1.950730 1.463040 
					CHANNELS 3 Zrotation Xrotation Yrotation
					JOINT Character1_RightForeArm
					{
						OFFSET -28.174200 -1.711500 0.487680 
						CHANNELS 3 Zrotation Xrotation Yrotation
						JOINT Character1_RightHand
						{
							OFFSET -22.587900 0.773209 7.071360 
							CHANNELS 3 Zrotation Xrotation Yrotation
							End Site
							{
								OFFSET -1.782710 -1.182140 1.430490 
							}
						}
					}
				}
			}
			JOINT Character1_LeftShoulder
			{
				OFFSET 2.682240 19.263399 -4.876800 
				CHANNELS 3 Zrotation Xrotation Yrotation
				JOINT Character1_LeftArm
				{
					OFFSET 8.778240 -1.950730 1.463040 
					CHANNELS 3 Zrotation Xrotation Yrotation
					JOINT Character1_LeftForeArm
					{
						OFFSET 28.174200 -1.711500 0.487680 
						CHANNELS 3 Zrotation Xrotation Yrotation
						JOINT Character1_LeftHand
						{
							OFFSET 22.587900 0.773209 7.071360 
							CHANNELS 3 Zrotation Xrotation Yrotation
							End Site
							{
								OFFSET 1.782710 -1.182140 1.430490 
							}
						}
					}
				}
			}
		}
	}
	JOINT Character1_RightUpLeg
	{
		OFFSET -8.778240 4.350840 1.219200 
		CHANNELS 3 Zrotation Xrotation Yrotation
		JOINT Character1_RightLeg
		{
			OFFSET 0.000000 -38.526772 -1.463040 
			CHANNELS 3 Zrotation Xrotation Yrotation
			JOINT Character1_RightFoot
			{
				OFFSET 0.731520 -45.110401 -5.120640 
				CHANNELS 3 Zrotation Xrotation Yrotation
				End Site
				{
					OFFSET -1.122100 -3.699640 12.103000 
				}
			}
		}
	}
	JOINT Character1_LeftUpLeg
	{
		OFFSET 8.778240 4.350840 1.219200 
		CHANNELS 3 Zrotation Xrotation Yrotation
		JOINT Character1_LeftLeg
		{
			OFFSET 0.000000 -38.526772 -1.463040 
			CHANNELS 3 Zrotation Xrotation Yrotation
			JOINT Character1_LeftFoot
			{
				OFFSET -0.731520 -45.110401 -5.120640 
				CHANNELS 3 Zrotation Xrotation Yrotation
				End Site
				{
					OFFSET 1.122100 -3.699640 12.103000 
				}
			}
		}
	}
}
MOTION
Frames: 11
Frame Time: 0.008333
60.118599 82.362900 3.958080 -0.835100 2.081700 17.535299 0.518322 29.598700 -2.742860 1.280080 -10.447900 -0.633182 -0.542260 -2.358290 -0.387522 -0.640510 -53.209702 -1.052720 -0.000000 -0.000000 0.000000 80.805298 29.511400 -7.380220 -18.248800 -10.957000 34.579800 -0.855218 -25.302299 -3.809460 -0.000000 -0.000000 0.000000 -78.787399 21.496799 4.184020 17.269501 -9.922190 -32.401001 0.430006 -18.316200 2.666580 5.407790 -45.969299 8.469570 -0.408592 43.706501 0.791639 -1.787670 -1.559600 -9.591640 -0.445490 -44.688000 1.183690 0.391897 42.059299 -0.683645 1.574320 -0.861455 8.927260 
60.077499 82.908401 4.154030 -0.854100 2.189000 17.181400 0.511519 29.219999 -2.712570 1.224350 -10.398000 -0.632984 -0.531443 -2.486960 -0.391319 -0.679721 -52.532001 -1.069190 -0.000000 -0.000000 0.000000 80.945999 29.047300 -7.796980 -18.127600 -10.825200 34.305302 -0.833756 -25.010000 -3.759170 -0.000000 -0.000000 0.000000 -78.927803 20.915001 4.836970 17.234100 -9.886170 -32.323601 0.443536 -18.589899 2.709370 5.026620 -44.839802 8.177550 -0.374286 42.205700 0.740018 -1.655800 -0.981616 -9.489560 -0.446235 -43.488602 1.219830 0.360066 40.516602 -0.633308 1.432870 -0.139149 8.820570 
60.028099 83.413902 4.296650 -0.990300 2.283500 16.972700 0.503349 28.851000 -2.681670 1.165990 -10.355400 -0.632959 -0.534074 -2.551680 -0.398001 -0.693552 -51.906601 -1.077910 0.000000 -0.000000 0.000000 81.085701 28.605200 -8.213840 -18.013000 -10.701200 34.048000 -0.813544 -24.727800 -3.710930 0.000000 -0.000000 0.000000 -79.035301 20.412600 5.489020 17.191799 -9.843280 -32.231300 0.453801 -18.794201 2.741400 4.672010 -43.702499 7.935460 -0.343341 40.756199 0.692713 -1.530370 -0.438232 -9.366590 -0.451714 -42.288300 1.256040 0.331627 39.029400 -0.587187 1.300310 0.547499 8.714760 
60.059898 83.861000 4.373650 -0.758500 2.215700 16.955601 0.490330 28.471701 -2.662450 1.130440 -10.315000 -0.633644 -0.591072 -2.437440 -0.408470 -0.567745 -51.483299 -1.015020 0.000000 -0.000000 0.000000 81.200897 28.268000 -8.645070 -17.920300 -10.601300 33.841702 -0.799444 -24.526501 -3.676710 0.000000 -0.000000 0.000000 -79.129303 19.911400 6.146890 17.145000 -9.796070 -32.129101 0.457300 -18.863701 2.752310 4.369160 -42.567799 7.713410 -0.316061 39.373299 0.649485 -1.406260 0.106328 -9.216930 -0.442904 -41.094700 1.276940 0.306252 37.587299 -0.545010 1.180830 1.180730 8.629700 
59.960098 84.273399 4.482820 -0.874800 2.130500 16.804800 0.446559 28.058100 -2.647710 1.132390 -10.294500 -0.633056 -0.732436 -2.020870 -0.421706 -0.229584 -51.396198 -0.835736 0.000000 -0.000000 0.000000 81.295898 28.094299 -9.133480 -17.861601 -10.538300 33.711899 -0.794754 -24.458099 -3.665140 0.000000 -0.000000 0.000000 -79.238297 19.387300 6.867330 17.098000 -9.748580 -32.026798 0.451122 -18.743500 2.733410 4.125010 -41.448502 7.522330 -0.291930 38.061001 0.609646 -1.276710 0.680381 -8.999970 -0.405600 -39.906399 1.297330 0.283013 36.172100 -0.506114 1.075330 1.751270 8.573520 
59.842300 84.677902 4.686780 -1.164200 2.234300 16.395500 0.382120 27.627100 -2.634360 1.155630 -10.290300 -0.631614 -0.929706 -1.394200 -0.437680 0.247899 -51.533501 -0.581747 0.000000 -0.000000 0.000000 81.384102 28.026800 -9.660190 -17.827000 -10.501500 33.634800 -0.795892 -24.473801 -3.667820 0.000000 -0.000000 0.000000 -79.344101 18.882601 7.628570 17.048100 -9.698280 -31.918900 0.437918 -18.480900 2.692250 3.920890 -40.336300 7.367870 -0.270107 36.811199 0.572750 -1.148650 1.258940 -8.731730 -0.352747 -38.720699 1.319340 0.261599 34.794601 -0.470174 0.980415 2.269920 8.534210 
59.917999 85.065300 4.915540 -0.864000 2.270700 15.990800 0.346779 27.219999 -2.640490 1.179260 -10.265300 -0.633472 -1.136080 -0.765868 -0.458747 0.756044 -51.676899 -0.322157 -0.000000 0.000000 0.000000 81.455101 27.975000 -10.146800 -17.798300 -10.471300 33.570202 -0.797226 -24.493401 -3.671140 -0.000000 0.000000 0.000000 -79.397400 18.420401 8.320090 16.987700 -9.637780 -31.787600 0.422433 -18.164101 2.642800 3.748770 -39.209202 7.215810 -0.250421 35.620800 0.538958 -1.034980 1.797440 -8.491320 -0.302126 -37.542400 1.311050 0.242583 33.487400 -0.437441 0.893497 2.748960 8.501490 
59.905800 85.345100 5.034540 -0.775500 2.223900 15.732600 0.389781 26.878000 -2.683920 1.182360 -10.182400 -0.642776 -1.304930 -0.344287 -0.487209 1.179660 -51.608601 -0.131178 -0.000000 0.000000 0.000000 81.495499 27.849899 -10.513600 -17.757099 -10.428000 33.477798 -0.793129 -24.436899 -3.661470 -0.000000 0.000000 0.000000 -79.353302 18.025000 8.832700 16.908600 -9.559550 -31.615200 0.408913 -17.881001 2.598800 3.604330 -38.044701 7.034600 -0.232713 34.486401 0.508456 -0.944916 2.250760 -8.357680 -0.268277 -36.376400 1.242460 0.226439 32.283401 -0.408105 0.812398 3.200770 8.465120 
59.762501 85.621300 5.159630 -1.121800 2.440300 15.364400 0.566286 26.636999 -2.795200 1.154290 -10.007000 -0.665562 -1.459920 -0.195827 -0.538648 1.556610 -51.282799 -0.020148 -0.000000 0.000000 0.000000 81.489502 27.597300 -10.705400 -17.690500 -10.358100 33.328999 -0.779021 -24.237700 -3.627600 -0.000000 0.000000 0.000000 -79.184097 17.721701 9.086670 16.800900 -9.453700 -31.380800 0.397137 -17.632799 2.560290 3.487870 -36.803398 6.776400 -0.216591 33.409500 0.481349 -0.880600 2.595050 -8.359550 -0.241893 -35.201302 1.095850 0.212689 31.184000 -0.381763 0.732678 3.647640 8.379700 
59.704899 85.938400 5.407160 -1.305800 2.817500 14.738900 0.835270 26.466600 -2.955800 1.108080 -9.767000 -0.697946 -1.614170 -0.205732 -0.606823 1.923780 -50.812000 0.046377 -0.000000 0.000000 -0.000000 81.448898 27.275999 -10.776700 -17.610500 -10.274400 33.151199 -0.759335 -23.953600 -3.579560 -0.000000 0.000000 -0.000000 -78.927101 17.492300 9.159490 16.670500 -9.326220 -31.099300 0.385314 -17.379999 2.521160 3.408190 -35.507702 6.475590 -0.201682 32.391102 0.457075 -0.833493 2.857760 -8.451900 -0.212071 -34.021702 0.894715 0.200626 30.174000 -0.357974 0.657602 4.076750 8.264710 
59.680801 86.154099 5.626020 -1.296400 3.110600 14.117000 1.101900 26.308701 -3.110030 1.058280 -9.519550 -0.729222 -1.705550 -0.310733 -0.661268 2.162300 -50.215599 0.062610 0.000000 0.000000 -0.000000 81.400002 26.966700 -10.811000 -17.536800 -10.197500 32.988499 -0.741589 -23.690701 -3.535380 0.000000 0.000000 -0.000000 -78.634804 17.295000 9.177730 16.534100 -9.193570 -30.807199 0.374785 -17.149900 2.485670 3.367840 -34.228100 6.219990 -0.187930 31.427200 0.434893 -0.795676 3.070590 -8.603190 -0.191674 -32.881802 0.670351 0.190335 29.261801 -0.336862 0.594633 4.447510 8.207280 
